<svg width="82" height="113" viewBox="0 0 82 113" fill="none" xmlns="http://www.w3.org/2000/svg">
<path d="M70.4762 4.43953C70.8123 4.32575 71.1711 4.28199 71.5273 4.31131C71.8835 4.34063 72.2285 4.44233 72.5382 4.60928C72.8479 4.77623 73.1147 5.00439 73.32 5.27778C73.5253 5.55117 73.6641 5.86317 73.7267 6.19192C74.1282 7.98601 74.1781 10.0992 74.0484 12.2495C73.6447 18.61 71.5292 24.9352 68.0184 30.6134L29.1392 93.4944L11.9207 84.2116L50.9565 21.0773C54.3679 15.5598 59.0227 10.8032 64.5227 7.34056C67.1298 5.69593 69.0969 4.86166 70.4762 4.43953Z" fill="#EEEEEE"/>
<path d="M65.289 10.9563L70.6338 13.8377C71.6387 14.3795 71.983 15.5794 71.4028 16.5178L71.1268 16.9642C70.5466 17.9026 69.2616 18.2241 68.2566 17.6823L62.9119 14.8009C61.907 14.2591 61.5627 13.0592 62.1429 12.1208L62.4189 11.6744C62.9991 10.736 64.2841 10.4145 65.289 10.9563Z" fill="#181818"/>
<path opacity="0.1" d="M49.5631 23.5307L66.6013 32.7163L66.2193 33.3341L49.1811 24.1486L49.5631 23.5307Z" fill="black"/>
<path d="M14.9785 104.335C12.992 103.264 12.3113 100.893 13.4583 99.0375C14.6052 97.1825 17.1454 96.5469 19.132 97.6179C21.1186 98.6889 21.7992 101.061 20.6523 102.916C19.5053 104.771 16.9651 105.406 14.9785 104.335Z" fill="white" stroke="black" stroke-width="2" stroke-miterlimit="10"/>
<path d="M7.2035 107.375C3.99583 105.646 2.8968 101.816 4.74875 98.8203C6.6007 95.8251 10.7023 94.7988 13.91 96.5281C17.1177 98.2574 18.2167 102.087 16.3648 105.083C14.5128 108.078 10.4112 109.104 7.2035 107.375Z" fill="white" stroke="black" stroke-width="2" stroke-miterlimit="10"/>
<path d="M6.95949 100.012C4.97292 98.9413 4.29227 96.5693 5.43922 94.7143C6.58617 92.8593 9.12639 92.2237 11.113 93.2947C13.0995 94.3657 13.7802 96.7377 12.6332 98.5927C11.4863 100.448 8.94606 101.083 6.95949 100.012Z" fill="white" stroke="black" stroke-width="2" stroke-miterlimit="10"/>
</svg>
