<svg width="373" height="171" viewBox="0 0 373 171" fill="none" xmlns="http://www.w3.org/2000/svg">
<path d="M142.667 0.40918L104.683 103.798L142.667 67.3075L180.651 103.798L142.667 0.40918Z" fill="#FFAEE4"/>
<path d="M128.081 142.72C137.228 142.72 144.642 135.301 144.642 126.148C144.642 116.995 137.228 109.575 128.081 109.575C118.935 109.575 111.52 116.995 111.52 126.148C111.52 135.301 118.935 142.72 128.081 142.72Z" fill="#FFAEE4" stroke="#181818" stroke-width="2" stroke-miterlimit="10"/>
<path d="M148.441 169.48C163.209 169.48 175.181 157.499 175.181 142.72C175.181 127.941 163.209 115.961 148.441 115.961C133.672 115.961 121.7 127.941 121.7 142.72C121.7 157.499 133.672 169.48 148.441 169.48Z" fill="#FFAEE4" stroke="#181818" stroke-width="2" stroke-miterlimit="10"/>
<path d="M165.001 142.72C174.148 142.72 181.562 135.301 181.562 126.148C181.562 116.995 174.148 109.575 165.001 109.575C155.855 109.575 148.44 116.995 148.44 126.148C148.44 135.301 155.855 142.72 165.001 142.72Z" fill="#FFAEE4" stroke="#181818" stroke-width="2" stroke-miterlimit="10"/>
<path d="M67.9149 92.3944H56.5198L12.9145 25.8001V92.3944H1.51935V6.03467H12.9145L56.5198 72.933V6.03467H67.9149V92.3944Z" stroke="white" stroke-width="2" stroke-miterlimit="10"/>
<path d="M238.234 53.9278C228.51 51.1911 221.369 47.6941 216.963 43.589C212.557 39.4839 210.278 34.4665 210.278 28.3848C210.278 21.5429 213.013 15.9174 218.482 11.5082C223.952 7.09898 230.941 4.81836 239.753 4.81836C245.679 4.81836 250.997 6.03469 255.555 8.31532C260.265 10.5959 263.759 13.7888 266.342 17.7419C268.925 21.695 270.14 26.2562 270.14 30.9695H258.745C258.745 25.8001 257.074 21.5429 253.731 18.6542C250.389 15.6133 245.679 14.0929 239.601 14.0929C233.98 14.0929 229.574 15.3092 226.383 17.7419C223.192 20.1746 221.673 23.6715 221.673 28.0807C221.673 31.5777 223.192 34.6185 226.079 37.0512C229.118 39.4839 234.132 41.7645 241.273 43.741C248.414 45.7176 254.035 47.9982 258.137 50.4309C262.24 52.8635 265.126 55.7523 267.102 58.9452C269.077 62.1381 269.988 65.9391 269.988 70.3483C269.988 77.3423 267.254 82.9678 261.784 87.225C256.314 91.4821 249.021 93.6107 239.905 93.6107C233.98 93.6107 228.358 92.5464 223.344 90.2658C218.179 87.9852 214.228 84.9443 211.493 80.8392C208.759 76.8861 207.239 72.3249 207.239 67.3075H218.634C218.634 72.4769 220.61 76.7341 224.408 79.6229C228.206 82.5117 233.372 84.1841 239.905 84.1841C245.983 84.1841 250.541 82.9678 253.731 80.5351C256.922 78.1025 258.593 74.7575 258.593 70.5004C258.593 66.2432 257.074 63.0503 254.187 60.6177C251.3 58.185 245.983 56.2085 238.234 53.9278Z" stroke="white" stroke-width="2" stroke-miterlimit="10"/>
<path d="M350.818 69.8922H314.657L306.453 92.5464H294.754L327.723 6.03467H337.751L370.721 92.3944H359.022L350.818 69.8922ZM318 60.4656H347.323L332.737 20.0225L318 60.4656Z" stroke="white" stroke-width="2" stroke-miterlimit="10"/>
</svg>
