<svg width="39" height="48" viewBox="0 0 39 48" fill="none" xmlns="http://www.w3.org/2000/svg">
<path d="M30.1943 5.50385L8.85874 23.2971L21.7575 20.1167L25.4526 32.8776L30.1943 5.50385Z" fill="#FFAEE4"/>
<path d="M9.06097 34.7499C11.0588 35.9034 13.6142 35.2177 14.7684 33.2185C15.9227 31.2192 15.2389 28.6634 13.241 27.5099C11.2431 26.3565 8.68781 27.0421 7.53352 29.0414C6.37924 31.0407 7.06311 33.5965 9.06097 34.7499Z" fill="#FFAEE4" stroke="black" stroke-width="2" stroke-miterlimit="10"/>
<path d="M10.1335 43.1627C13.3594 45.0252 17.4855 43.9181 19.3492 40.6899C21.213 37.4617 20.1088 33.3349 16.8829 31.4724C13.657 29.6099 9.53097 30.7171 7.66717 33.9452C5.80338 37.1734 6.9076 41.3002 10.1335 43.1627Z" fill="#FFAEE4" stroke="black" stroke-width="2" stroke-miterlimit="10"/>
<path d="M17.1256 39.4059C19.1235 40.5594 21.6788 39.8738 22.8331 37.8745C23.9874 35.8752 23.3035 33.3194 21.3056 32.1659C19.3078 31.0125 16.7524 31.6981 15.5982 33.6974C14.4439 35.6967 15.1277 38.2525 17.1256 39.4059Z" fill="#FFAEE4" stroke="black" stroke-width="2" stroke-miterlimit="10"/>
</svg>
